PathFileType	4	(X/Y/Z)	C:/Users/beibeiliu/ov580/test_trc/User2\sequence.7_training_dense_right.trc
DataRate	CameraRate	NumFrames	NumMarkers	Units	OrigDataRate	OrigDataStartFrame	OrigNumFrames
120	120	25	19	mm	120	212	338
Frame#	Time	ThumbCMC			ThumbMCP			ThumbIP			ThumbTip			IndexMCP			IndexPIP			IndexTip			MiddleMCP			MiddlePIP			MiddleTip			RingMCP			RingPIP			RingTip			PinkyMCP			PinkyPIP			PinkyTip			BackHand1			BackHand2			BackHand3	
		X0	Y0	Z0	X1	Y1	Z1	X2	Y2	Z2	X3	Y3	Z3	X4	Y4	Z4	X5	Y5	Z5	X6	Y6	Z6	X7	Y7	Z7	X8	Y8	Z8	X9	Y9	Z9	X10	Y10	Z10	X11	Y11	Z11	X12	Y12	Z12	X13	Y13	Z13	X14	Y14	Z14	X15	Y15	Z15	X16	Y16	Z16	X17	Y17	Z17	X18	Y18	Z18	
211	1.75833	178.351	42.3294	20.1047	163.522	48.2284	-4.35407	149.215	47.8483	-37.0918	135.567	49.9658	-56.3497	146.372	-10.232	-36.3716	119.843	-8.0648	-21.0166	138.856	11.7343	6.2063	147.407	-30.5984	-24.0335	118.58	-21.6184	-4.87516	139.317	2.01059	20.0546	140.319	-41.6458	-5.81645	121.338	-27.9973	15.9187	148.637	-8.99238	30.679	144.048	-51.884	13.592	128.007	-30.4445	27.8556	156.369	-13.494	41.9054	199.039	-28.1499	17.084	211.383	-12.8853	50.8809	205.068	8.24863	16.0284	
212	1.76667	165.657	44.2311	26.3776	147.677	44.4286	6.82935	128.608	49.0651	-24.4747	112.767	49.2846	-42.7879	143.41	-7.50526	-32.8767	119.022	-14.4987	-16.4324	133.268	5.98544	13.3865	147.246	-31.2753	-22.155	121.59	-28.414	-1.16894	139.885	-4.92004	26.4979	147.884	-47.2818	-3.3842	129.19	-34.4611	18.62	153.775	-12.0999	32.6041	154.903	-54.2096	12.1696	137.993	-36.5456	33.9008	164.09	-18.3681	43.3999	205.098	-16.8921	15.1823	213.655	-0.954714	44.3417	198.568	21.7289	17.6989	
213	1.775	154.501	39.5292	37.9999	131.926	40.3619	13.9214	110.207	39.6231	-11.6845	92.7247	39.0188	-29.6464	140.769	-5.68915	-27.1626	118.451	-23.0429	-10.1986	131.084	-2.09605	20.4295	152.217	-27.8779	-21.2101	126.952	-38.5474	4.74194	146.651	-10.6066	31.746	154.462	-43.7818	-6.92167	138.836	-44.5987	18.7202	158.23	-13.5046	32.6361	168.405	-52.6334	7.42282	150.311	-45.8348	34.9224	167.532	-21.0304	41.4965	207.103	-5.56746	15.0478	216.119	8.44635	46.5591	190.276	31.257	24.5523	
214	1.78333	145.365	33.1379	47.6872	124.648	28.2204	28.4963	97.5175	29.5037	1.55091	78.9212	26.8856	-10.2945	135.86	-9.60696	-23.2701	123.212	-32.9658	-6.40724	132.129	-13.3722	23.9538	150.924	-27.1472	-20.4607	136.916	-47.5841	4.56419	146.074	-17.7919	33.5537	160.777	-43.5981	-8.70549	147.909	-49.7813	20.2841	162.493	-20.6067	35.1019	178.087	-52.5447	3.90921	160.313	-48.1216	32.6719	175.338	-21.7184	40.7385	205.562	0.525418	10.0511	216.268	14.5604	42.4748	183.122	30.7443	28.7264	
215	1.79167	142.992	25.5792	50.1676	120.007	20.8867	30.1596	95.1924	19.1248	10.4181	74.3768	16.2975	-3.34473	137.887	-15.0818	-22.0633	127.084	-39.6853	-4.42909	136.791	-21.359	25.1151	151.731	-28.9211	-20.5486	142.628	-51.0966	3.68341	153.804	-22.7745	34.4298	170.367	-44.6259	-9.13621	155.641	-51.3699	19.1798	165.484	-23.0899	33.6186	183.645	-49.1053	0.298201	171.598	-53.6866	30.7429	180.396	-25.1751	42.4832	203.177	7.70361	12.2343	212.259	20.0447	43.8996	176.066	33.6973	28.7063	
216	1.8	141.677	21.5604	51.6266	121.543	13.9951	32.7194	96.5074	10.383	8.46182	75.4283	8.03747	-5.06473	139.841	-15.6441	-22.3747	133.291	-43.3366	-7.3608	143.24	-27.0162	24.6089	158.67	-27.1255	-21.441	150.313	-53.6389	5.49521	153.509	-27.1338	32.8924	172.858	-44.9045	-11.3401	164.613	-56.314	15.1056	171.69	-22.2003	31.8947	190.804	-48.3433	-0.494768	176.022	-51.3744	28.6094	189.877	-23.0963	40.1891	203.328	9.2603	9.8273	214.463	19.791	42.0449	178.354	29.3171	33.2388	
217	1.80833	145.356	16.6949	51.3174	122.459	11.5854	32.3479	97.9627	7.39083	5.40479	83.1232	-0.391628	-7.59054	143.508	-17.6459	-25.1023	136.755	-46.4163	-8.79234	146.014	-28.9629	22.9453	165.56	-34.264	-22.7255	157.055	-57.08	2.4786	161.609	-27.856	32.3056	179.764	-47.0318	-12.127	172.12	-58.5192	15.9038	175.093	-25.9406	32.1379	197.934	-50.0396	-1.13114	183.348	-55.841	27.4968	188.307	-26.3695	39.4328	208.719	5.79001	13.5289	216.455	18.6201	42.4645	179.7	26.9089	30.9673	
218	1.81667	148.716	14.9806	49.4694	126.245	8.3088	27.4988	102.422	4.16933	1.17047	86.2119	-2.08101	-12.8427	149.947	-20.5838	-25.8545	142.523	-48.4646	-9.71616	151.76	-30.466	22.196	169.384	-34.1589	-23.8537	161.752	-59.6753	3.04441	164.843	-30.2657	32.6257	185.196	-49.3885	-11.3873	177.192	-62.5934	13.8257	180	-29.5624	32.2663	201.27	-49.1051	-1.81803	188.685	-60.1685	27.2798	192.239	-25.399	38.0046	212.656	7.74128	14.4183	216.734	20.0236	45.6859	184.61	25.4934	29.4362	
219	1.825	149.762	11.052	50.4183	125.409	5.61361	28.4879	105.482	-0.754416	-0.0556988	90.4595	-9.43436	-15.3406	156.399	-24.9217	-23.2893	149.128	-52.8604	-6.91031	152.779	-35.4927	22.6394	173.523	-39.5622	-22.2156	164.478	-62.3104	3.12971	165.04	-34.9245	33.2929	190.888	-52.8976	-8.53003	177.846	-62.4629	16.764	180.372	-29.4211	34.0913	202.411	-53.4656	1.55854	188.871	-59.7362	28.1256	194.282	-29.7593	41.6207	213.812	3.91701	15.0875	215.95	17.8432	47.0201	181.766	23.7088	33.4891	
220	1.83333	143.974	12.3112	52.0664	125.196	1.55191	28.0904	103.189	-7.54762	3.31759	90.2117	-17.266	-16.3597	149.094	-30.3483	-21.3588	145.056	-56.3801	-1.22592	148.29	-35.1769	27.2988	173.302	-42.9591	-18.2987	161.249	-63.5511	10.5218	166.94	-35.1174	36.4386	189.643	-49.2651	-6.61834	179.517	-64.0544	21.9057	179.166	-30.4991	36.8798	202.431	-52.1625	5.81014	190.347	-59.1551	37.1828	190.996	-29.0314	44.9583	211.67	4.04916	15.9866	212.056	19.7445	50.5219	177.598	21.9382	29.0168	
221	1.84167	138.926	8.00431	57.2572	116.889	-2.21549	38.5696	99.7288	-13.4471	13.3778	85.0749	-24.3235	-7.69885	145.29	-34.2075	-14.6915	143.185	-59.4895	1.9615	143.244	-39.269	33.3384	167.588	-42.0752	-11.8713	156.028	-64.8375	16.6571	160.736	-35.7499	41.5378	185.58	-50.1691	-0.63719	176.115	-64.1376	28.6376	173.415	-31.9446	41.8069	203.303	-53.7797	9.75866	186.986	-60.033	37.2664	191.704	-31.149	51.257	203.206	7.386	20.5702	204.569	21.5169	53.3708	171.195	23.4822	36.7029	
222	1.85	132.262	6.52936	65.1883	112.491	-3.72035	49.6508	88.5874	-15.0593	21.2419	74.8135	-27.0793	8.59865	132.769	-34.2849	-5.79114	135.661	-59.9312	11.9346	137.335	-41.0304	39.9153	154.586	-39.7065	-5.83745	149.844	-64.9182	23.0358	152.68	-36.9039	48.3998	173.141	-51.6037	4.04823	169.776	-63.12	31.606	169.558	-28.3074	47.3531	192.018	-53.3451	13.3891	181.3	-56.7306	44.0843	181.329	-28.9256	53.833	193.836	9.36381	22.3797	196.442	23.3395	52.4793	157.858	22.6947	41.1628	
223	1.85833	128.065	7.29916	74.3926	102.083	-1.84763	55.8817	82.5988	-13.6989	37.1265	61.7865	-25.2133	17.1692	118.426	-30.1123	3.18477	118.661	-58.555	18.9625	129.314	-35.9817	47.7557	139.762	-40.7292	1.24278	142.417	-62.353	30.6219	145.88	-34.4568	54.0724	162.331	-50.9018	8.72826	158.034	-59.9451	37.7329	161.362	-25.9107	53.0628	180.955	-44.2454	14.4394	171.797	-53.799	47.799	178.023	-22.6717	57.0979	178.592	13.4008	26.0581	187.109	28.539	55.0297	149.685	27.5096	50.1964	
224	1.86667	119.015	13.2	82.6917	96.171	1.94302	64.2246	72.1231	-8.82972	45.8002	51.4016	-19.4603	32.9463	105.56	-26.3766	10.2272	107.866	-52.7058	25.8004	117.782	-30.7953	54.4725	125.107	-34.9963	6.08088	131.635	-59.0049	35.2556	135.337	-29.489	59.8893	150.109	-42.096	11.2594	147.926	-57.4024	42.1126	149.106	-22.8878	55.9671	166.187	-44.4139	17.7764	159.675	-51.0781	49.7449	165.619	-22.6004	60.8389	168.76	13.7553	26.1102	180.178	28.0526	57.5768	143.049	30.5879	54.2621	
225	1.875	112.449	17.9171	86.242	87.6357	8.26456	74.2057	61.5186	-0.383787	52.6655	40.895	-9.6451	42.3017	94.9788	-18.559	14.0802	92.5914	-46.2045	32.911	110.161	-25.8979	56.4811	113.359	-30.3234	10.7859	113.16	-52.5625	38.4444	124.833	-25.9153	62.9613	135.267	-42.6688	15.6285	131.244	-51.9569	42.9753	142.912	-21.4444	59.7947	149.805	-41.8445	20.9406	151.408	-49.3299	53.0454	155.633	-15.1984	62.9169	156.588	15.6288	30.0917	176.029	29.1839	58.6552	136.007	35.3638	59.6098	
226	1.88333	111.323	23.8007	89.5971	79.2202	17.0147	73.6404	53.5426	10.0488	58.9922	30.0509	3.71995	47.5567	84.0387	-6.67317	18.1148	85.7416	-37.2544	31.9889	102.141	-19.5356	57.4335	105.748	-25.4184	11.4233	101.877	-45.3871	40.1555	117.542	-17.8549	63.2884	122.639	-36.8875	17.8146	121.938	-47.2318	43.7837	130.695	-16.2277	59.896	142.985	-35.6756	20.923	136.594	-42.8392	52.9332	145.193	-14.3032	65.3832	154.773	19.8083	27.9118	169.447	32.7958	62.104	131.062	38.4029	59.8415	
227	1.89167	107.863	31.2691	86.7826	75.6287	26.3804	74.6052	49.5394	20.1998	54.7062	29.5019	14.8128	46.9003	81.5079	-3.31924	13.8536	79.5828	-28.2176	33.8305	95.8763	-8.27228	55.8709	100.111	-17.6675	9.04034	94.2544	-38.0045	37.3236	111.022	-12.2503	61.8101	115.814	-30.6595	16.5591	112.042	-39.9791	44.3557	128.283	-7.59567	58.4902	134.199	-33.1175	21.5882	129.018	-36.1472	54.7222	142.525	-8.67896	62.7379	151.431	22.6795	28.4928	168.062	35.7362	61.1742	133.559	44.0698	58.3369	
228	1.9	100.249	40.6375	79.3008	74.4397	36.9	69.3717	48.8951	31.4441	47.1279	25.4664	27.8741	37.4175	81.8348	5.9453	9.77404	74.4922	-20.2754	25.2834	91.0761	1.91488	53.8005	100.586	-8.87444	4.99655	90.7005	-31.4875	31.3001	104.43	-4.87549	59.0338	113.657	-21.6509	12.1511	109.912	-34.79	42.526	123.394	-1.90286	55.0043	134.482	-30.8933	18.7242	123.295	-34.7474	48.7841	133.901	-3.22445	60.1098	151.889	26.5942	28.2748	166.372	37.5026	58.2292	128.297	50.0776	52.0704	
229	1.90833	102.313	46.2731	74.643	77.2534	42.7511	61.7144	49.7033	41.2243	39.3069	29.3172	36.7135	29.0099	82.7999	11.061	1.83519	74.4213	-14.7682	18.8101	94.5702	6.12239	46.8841	98.0501	-2.04604	-0.0248313	90.155	-26.8994	29.0557	104.403	0.945225	52.7163	111	-21.6583	7.92262	106.562	-30.1442	37.956	121.848	-3.38618	51.7718	130.251	-30.4362	16.5116	119.576	-26.7493	46.6645	135.646	-0.47562	55.3301	154.105	24.9699	21.3812	168.541	39.187	57.04	131.927	53.8352	47.7352	
230	1.91667	107.275	46.6003	63.9241	80.2144	44.8482	48.0439	54.9584	43.2289	27.9504	34.9919	39.8185	10.547	87.1	13.5062	-5.60156	78.2324	-11.9248	9.93398	90.7962	4.63008	40.1058	106.015	-3.61146	-6.77678	89.9553	-24.2475	21.8915	103.689	-1.02797	47.134	116.073	-18.0568	2.8033	108.706	-28.9744	32.8646	123.693	1.58259	45.2773	131.78	-28.7454	12.9471	122.57	-28.7102	43.9178	135.729	-4.80137	51.9976	161.088	24.742	22.0593	174.512	37.0121	53.9713	135.728	53.4192	44.0695	
231	1.925	107.158	50.112	58.4214	82.2489	47.2368	38.2918	58.7552	45.1769	16.8249	42.9482	38.3955	-1.86157	93.1733	13.0086	-13.2965	80.6304	-12.2837	6.95579	96.445	4.69988	34.4563	113.298	-6.96066	-11.2948	96.0954	-25.237	16.2705	110.279	-2.33106	42.0943	122.503	-20.1156	-1.18631	111.15	-30.9421	24.3482	127.536	-4.43299	42.453	141.425	-31.6126	8.87604	126.601	-30.5649	40.8117	137.243	-3.25419	49.5239	164.705	24.3344	18.7539	176.545	36.8362	48.1806	142.919	51.3344	35.526	
232	1.93333	113.416	46.4148	53.9634	88.8704	40.8698	33.1617	65.6314	37.3945	4.45004	47.4931	31.1527	-11.9658	101.941	4.08554	-19.0543	89.2458	-17.0179	0.504159	99.2223	-0.302452	29.1361	118.31	-14.4335	-14.4932	102.046	-30.2352	10.2685	115.85	-0.0219481	39.4253	130.687	-29.338	-2.35971	115.409	-31.7746	25.4886	129.742	-2.88238	39.1521	143.915	-34.0954	8.30214	127.856	-31.8061	38.4096	139.685	-7.78654	46.5423	170.798	18.0607	14.9294	181.781	34.0646	51.0781	144.315	51.6849	33.7693	
233	1.94167	114.892	43.3999	49.7107	90.1685	36.9816	27.976	70.1371	28.1969	-0.852186	52.2401	21.3601	-14.2424	108.157	0.775611	-19.4402	93.2287	-23.9204	0.0315138	102.151	-6.22027	25.9518	122.189	-16.4239	-16.3072	105.19	-34.1997	10.3459	115.239	-3.6647	37.8432	135.878	-32.7482	-1.39204	122.15	-40.0749	25.086	134.681	-7.12613	40.7672	152.185	-37.7768	11.6256	132.575	-35.5666	41.1068	145.041	-10.4402	49.4254	175.78	16.5192	18.8892	181.886	33.2267	45.9824	150.708	45.501	30.6769	
234	1.95	114.837	37.6386	51.01	92.773	27.0513	26.9397	71.2842	16.8402	0.41369	58.1511	6.38879	-15.4121	111.655	-12.4765	-17.9588	99.0473	-32.5433	2.47158	103.275	-7.98599	28.8184	128.737	-24.5379	-11.7253	109.534	-42.1062	13.2716	118.691	-9.57588	39.5736	139.312	-38.0703	1.83985	125.144	-46.3163	28.9552	134.874	-8.99048	42.3721	155.96	-45.2633	16.9983	135.339	-40.9883	40.7873	144.948	-12.9356	49.693	176.414	12.8024	18.0721	182.431	30.8282	47.4896	150.219	40.1142	30.1214	
235	1.95833	111.869	32.0458	51.5876	88.9316	21.2824	34.6331	68.1527	7.44335	6.671	52.9119	-3.50189	-6.64643	107.115	-15.5783	-11.4258	95.9219	-37.9176	9.66624	107.908	-17.2007	33.1673	126.431	-30.0727	-6.7146	111.824	-46.8986	23.5593	119.686	-17.3135	45.0512	142.561	-40.8019	7.61186	129.25	-51.115	34.8423	135.686	-17.0645	48.6098	156.031	-43.8884	18.6811	140.373	-43.876	50.7993	148.915	-16.7673	55.5955	171.255	13.6747	21.0988	179.684	30.6846	49.3296	146.106	38.5703	31.5626	
